<svg width="172" height="30" viewBox="0 0 172 30" fill="none" xmlns="http://www.w3.org/2000/svg">
<g clip-path="url(#clip0_10075_16326)">
<path d="M166.221 13.0228C167.479 13.0228 168.497 12.0028 168.497 10.7447C168.497 9.48662 167.479 8.4668 166.221 8.4668C164.965 8.4668 163.946 9.48662 163.946 10.7447C163.946 12.0028 164.965 13.0228 166.221 13.0228Z" fill="#0B3B2D"/>
<path d="M46.4465 21.681C45.4344 21.681 44.5017 21.5223 43.6482 21.205C42.8069 20.8754 42.0692 20.4116 41.4352 19.8136C40.8134 19.2156 40.3257 18.5137 39.972 17.7082C39.6307 16.9027 39.46 16.0177 39.46 15.0536C39.46 14.0894 39.6307 13.2045 39.972 12.399C40.3257 11.5934 40.8195 10.8916 41.4535 10.2936C42.0875 9.69552 42.8313 9.23788 43.6848 8.92048C44.5383 8.59095 45.4772 8.42619 46.5013 8.42619C47.6353 8.42619 48.6534 8.61541 49.5556 8.99372C50.4701 9.37209 51.2383 9.92133 51.8601 10.6414L49.958 12.399C49.4947 11.9108 48.9887 11.5507 48.44 11.3188C47.8913 11.0747 47.2939 10.9527 46.6477 10.9527C46.0258 10.9527 45.4589 11.0503 44.9468 11.2456C44.4347 11.4409 43.9896 11.7216 43.6116 12.0877C43.2459 12.4539 42.9593 12.8871 42.752 13.3876C42.557 13.8881 42.4594 14.4433 42.4594 15.0536C42.4594 15.6516 42.557 16.2009 42.752 16.7013C42.9593 17.2017 43.2459 17.6411 43.6116 18.0194C43.9896 18.3856 44.4285 18.6663 44.9285 18.8616C45.4406 19.0569 46.0014 19.1545 46.6111 19.1545C47.1964 19.1545 47.7633 19.063 48.312 18.8799C48.8728 18.6846 49.4155 18.3611 49.9397 17.9096L51.6224 20.0516C50.9274 20.5764 50.1165 20.9791 49.1899 21.2599C48.2754 21.5406 47.3609 21.681 46.4465 21.681ZM48.9156 19.6671V14.8522H51.6224V20.0516L48.9156 19.6671ZM53.4419 21.4613V7.87695H56.2949V21.4613H53.4419ZM62.8934 21.6077C61.8448 21.6077 60.9121 21.3881 60.0951 20.9487C59.2904 20.5093 58.6503 19.9113 58.1748 19.1545C57.7114 18.3856 57.4798 17.5129 57.4798 16.5365C57.4798 15.5479 57.7114 14.6753 58.1748 13.9185C58.6503 13.1496 59.2904 12.5516 60.0951 12.1244C60.9121 11.685 61.8448 11.4653 62.8934 11.4653C63.9298 11.4653 64.8565 11.685 65.6735 12.1244C66.4905 12.5516 67.1301 13.1434 67.5937 13.9002C68.0572 14.6569 68.2887 15.5357 68.2887 16.5365C68.2887 17.5129 68.0572 18.3856 67.5937 19.1545C67.1301 19.9113 66.4905 20.5093 65.6735 20.9487C64.8565 21.3881 63.9298 21.6077 62.8934 21.6077ZM62.8934 19.2644C63.369 19.2644 63.7958 19.1545 64.1737 18.9348C64.5516 18.7151 64.8504 18.4039 65.0699 18.0011C65.2893 17.5862 65.399 17.0979 65.399 16.5365C65.399 15.9629 65.2893 15.4747 65.0699 15.0719C64.8504 14.6691 64.5516 14.3579 64.1737 14.1382C63.7958 13.9185 63.369 13.8087 62.8934 13.8087C62.4179 13.8087 61.9911 13.9185 61.6132 14.1382C61.2353 14.3579 60.9304 14.6691 60.6987 15.0719C60.4792 15.4747 60.3695 15.9629 60.3695 16.5365C60.3695 17.0979 60.4792 17.5862 60.6987 18.0011C60.9304 18.4039 61.2353 18.7151 61.6132 18.9348C61.9911 19.1545 62.4179 19.2644 62.8934 19.2644ZM75.2806 21.6077C74.4145 21.6077 73.6709 21.4247 73.0493 21.0585C72.4271 20.6924 71.9517 20.137 71.6226 19.3925C71.2934 18.6357 71.1285 17.6837 71.1285 16.5365C71.1285 15.377 71.299 14.425 71.6406 13.6805C71.994 12.9361 72.4819 12.3807 73.1041 12.0145C73.7257 11.6484 74.4512 11.4653 75.2806 11.4653C76.2071 11.4653 77.0359 11.6728 77.7676 12.0877C78.5112 12.5027 79.0967 13.0885 79.5235 13.8453C79.9622 14.6021 80.1819 15.4991 80.1819 16.5365C80.1819 17.5617 79.9622 18.4527 79.5235 19.2094C79.0967 19.9662 78.5112 20.5581 77.7676 20.9853C77.0359 21.4002 76.2071 21.6077 75.2806 21.6077ZM69.4641 21.4613V7.87695H72.3176V13.6073L72.1347 16.5182L72.1894 19.4474V21.4613H69.4641ZM74.7866 19.2644C75.2619 19.2644 75.6826 19.1545 76.0484 18.9348C76.4267 18.7151 76.7254 18.4039 76.9444 18.0011C77.1765 17.5862 77.2923 17.0979 77.2923 16.5365C77.2923 15.9629 77.1765 15.4747 76.9444 15.0719C76.7254 14.6691 76.4267 14.3579 76.0484 14.1382C75.6826 13.9185 75.2619 13.8087 74.7866 13.8087C74.3112 13.8087 73.8843 13.9185 73.506 14.1382C73.1283 14.3579 72.8297 14.6691 72.61 15.0719C72.3904 15.4747 72.2809 15.9629 72.2809 16.5365C72.2809 17.0979 72.3904 17.5862 72.61 18.0011C72.8297 18.4039 73.1283 18.7151 73.506 18.9348C73.8843 19.1545 74.3112 19.2644 74.7866 19.2644ZM87.2347 21.4613V19.539L87.0518 19.1179V15.6761C87.0518 15.0657 86.8633 14.5897 86.485 14.2481C86.1191 13.9063 85.5523 13.7354 84.7844 13.7354C84.2599 13.7354 83.7416 13.8209 83.2295 13.9917C82.7299 14.1504 82.303 14.3701 81.9496 14.6508L80.9254 12.6553C81.4618 12.2769 82.1076 11.9841 82.8636 11.7765C83.6196 11.569 84.3881 11.4653 85.1683 11.4653C86.6679 11.4653 87.8327 11.8193 88.6615 12.5271C89.4909 13.235 89.9053 14.3396 89.9053 15.8408V21.4613H87.2347ZM84.2356 21.6077C83.4672 21.6077 82.8089 21.4796 82.2601 21.2233C81.7119 20.9548 81.2913 20.5947 80.9982 20.1431C80.7058 19.6916 80.5595 19.185 80.5595 18.6236C80.5595 18.0377 80.6995 17.5251 80.9802 17.0857C81.2726 16.6464 81.7299 16.3046 82.3515 16.0605C82.9738 15.8042 83.7845 15.6761 84.7844 15.6761H87.3996V17.3421H85.0949C84.4242 17.3421 83.9612 17.4519 83.7049 17.6716C83.461 17.8913 83.3396 18.1659 83.3396 18.4954C83.3396 18.8616 83.4796 19.1545 83.7603 19.3742C84.0527 19.5817 84.4491 19.6854 84.9487 19.6854C85.4241 19.6854 85.8509 19.5756 86.2292 19.3559C86.6069 19.1241 86.8813 18.7884 87.0518 18.349L87.4911 19.6671C87.2839 20.3017 86.9056 20.7839 86.3574 21.1134C85.8086 21.443 85.1011 21.6077 84.2356 21.6077ZM91.7558 21.4613V7.87695H94.6087V21.4613H91.7558ZM96.7267 21.4613V8.6459H99.1771L106.731 17.873H105.542V8.6459H108.468V21.4613H106.036L98.464 12.2342H99.653V21.4613H96.7267ZM115.247 21.6077C114.198 21.6077 113.265 21.3881 112.448 20.9487C111.644 20.5093 111.004 19.9113 110.528 19.1545C110.064 18.3856 109.833 17.5129 109.833 16.5365C109.833 15.5479 110.064 14.6753 110.528 13.9185C111.004 13.1496 111.644 12.5516 112.448 12.1244C113.265 11.685 114.198 11.4653 115.247 11.4653C116.283 11.4653 117.21 11.685 118.027 12.1244C118.843 12.5516 119.483 13.1434 119.947 13.9002C120.41 14.6569 120.642 15.5357 120.642 16.5365C120.642 17.5129 120.41 18.3856 119.947 19.1545C119.483 19.9113 118.843 20.5093 118.027 20.9487C117.21 21.3881 116.283 21.6077 115.247 21.6077ZM115.247 19.2644C115.722 19.2644 116.149 19.1545 116.527 18.9348C116.904 18.7151 117.203 18.4039 117.423 18.0011C117.643 17.5862 117.752 17.0979 117.752 16.5365C117.752 15.9629 117.643 15.4747 117.423 15.0719C117.203 14.6691 116.904 14.3579 116.527 14.1382C116.149 13.9185 115.722 13.8087 115.247 13.8087C114.771 13.8087 114.344 13.9185 113.966 14.1382C113.589 14.3579 113.283 14.6691 113.052 15.0719C112.832 15.4747 112.723 15.9629 112.723 16.5365C112.723 17.0979 112.832 17.5862 113.052 18.0011C113.283 18.4039 113.589 18.7151 113.966 18.9348C114.344 19.1545 114.771 19.2644 115.247 19.2644ZM134.419 11.4653C135.199 11.4653 135.888 11.624 136.486 11.9413C137.095 12.2464 137.57 12.7224 137.912 13.3693C138.265 14.0039 138.443 14.8217 138.443 15.8225V21.4613H135.59V16.2619C135.59 15.4685 135.425 14.8827 135.096 14.5044C134.767 14.1261 134.303 13.9368 133.706 13.9368C133.29 13.9368 132.92 14.0345 132.59 14.2297C132.261 14.4128 132.005 14.6936 131.822 15.0719C131.639 15.4502 131.548 15.9324 131.548 16.5182V21.4613H128.695V16.2619C128.695 15.4685 128.53 14.8827 128.201 14.5044C127.883 14.1261 127.426 13.9368 126.829 13.9368C126.414 13.9368 126.043 14.0345 125.714 14.2297C125.384 14.4128 125.128 14.6936 124.945 15.0719C124.762 15.4502 124.671 15.9324 124.671 16.5182V21.4613H121.818V11.6117H124.543V14.303L124.031 13.5157C124.372 12.8445 124.854 12.3379 125.476 11.9962C126.109 11.6423 126.829 11.4653 127.634 11.4653C128.535 11.4653 129.322 11.6971 129.993 12.161C130.675 12.6125 131.127 13.3082 131.347 14.2481L130.34 13.9734C130.67 13.2045 131.194 12.5942 131.913 12.1427C132.645 11.6911 133.48 11.4653 134.419 11.4653ZM146.304 21.4613V19.539L146.121 19.1179V15.6761C146.121 15.0657 145.932 14.5897 145.554 14.2481C145.189 13.9063 144.622 13.7354 143.853 13.7354C143.328 13.7354 142.811 13.8209 142.299 13.9917C141.799 14.1504 141.371 14.3701 141.018 14.6508L139.994 12.6553C140.53 12.2769 141.176 11.9841 141.933 11.7765C142.688 11.569 143.456 11.4653 144.237 11.4653C145.737 11.4653 146.901 11.8193 147.73 12.5271C148.559 13.235 148.974 14.3396 148.974 15.8408V21.4613H146.304ZM143.304 21.6077C142.537 21.6077 141.878 21.4796 141.33 21.2233C140.781 20.9548 140.36 20.5947 140.068 20.1431C139.775 19.6916 139.628 19.185 139.628 18.6236C139.628 18.0377 139.768 17.5251 140.049 17.0857C140.341 16.6464 140.799 16.3046 141.421 16.0605C142.043 15.8042 142.853 15.6761 143.853 15.6761H146.468V17.3421H144.164C143.493 17.3421 143.03 17.4519 142.774 17.6716C142.53 17.8913 142.408 18.1659 142.408 18.4954C142.408 18.8616 142.548 19.1545 142.829 19.3742C143.121 19.5817 143.518 19.6854 144.018 19.6854C144.494 19.6854 144.919 19.5756 145.298 19.3559C145.676 19.1241 145.95 18.7884 146.121 18.349L146.56 19.6671C146.353 20.3017 145.975 20.7839 145.426 21.1134C144.877 21.443 144.169 21.6077 143.304 21.6077ZM155.12 21.6077C154.194 21.6077 153.36 21.4002 152.615 20.9853C151.872 20.5581 151.28 19.9662 150.841 19.2094C150.415 18.4527 150.201 17.5617 150.201 16.5365C150.201 15.4991 150.415 14.6021 150.841 13.8453C151.28 13.0885 151.872 12.5027 152.615 12.0877C153.36 11.6728 154.194 11.4653 155.12 11.4653C155.95 11.4653 156.675 11.6484 157.297 12.0145C157.919 12.3807 158.401 12.9361 158.742 13.6805C159.084 14.425 159.254 15.377 159.254 16.5365C159.254 17.6837 159.09 18.6357 158.76 19.3925C158.431 20.137 157.955 20.6924 157.334 21.0585C156.725 21.4247 155.987 21.6077 155.12 21.6077ZM155.614 19.2644C156.078 19.2644 156.499 19.1545 156.876 18.9348C157.255 18.7151 157.553 18.4039 157.772 18.0011C158.005 17.5862 158.12 17.0979 158.12 16.5365C158.12 15.9629 158.005 15.4747 157.772 15.0719C157.553 14.6691 157.255 14.3579 156.876 14.1382C156.499 13.9185 156.078 13.8087 155.614 13.8087C155.139 13.8087 154.713 13.9185 154.334 14.1382C153.956 14.3579 153.652 14.6691 153.42 15.0719C153.2 15.4747 153.091 15.9629 153.091 16.5365C153.091 17.0979 153.2 17.5862 153.42 18.0011C153.652 18.4039 153.956 18.7151 154.334 18.9348C154.713 19.1545 155.139 19.2644 155.614 19.2644ZM158.193 21.4613V19.4474L158.248 16.5182L158.065 13.6073V7.87695H160.918V21.4613H158.193Z" fill="#0B3B2D"/>
<path fill-rule="evenodd" clip-rule="evenodd" d="M17.2301 1C24.9543 1 31.216 7.26802 31.216 15C31.216 22.732 24.9543 29 17.2301 29C9.50587 29 3.24414 22.732 3.24414 15C3.24414 7.26802 9.50587 1 17.2301 1ZM16.7245 2.04761C15.1291 2.27238 13.6098 3.55575 12.4304 5.70218C12.0883 6.32478 11.7796 7.01262 11.5106 7.75534C13.1143 7.35189 14.8758 7.11409 16.7245 7.07731V2.04761ZM10.3286 8.09159C10.6631 7.04071 11.0723 6.07388 11.5445 5.21445C12.1292 4.15041 12.823 3.23157 13.6047 2.52584C9.35377 3.76166 6.00303 7.11575 4.76845 11.371C5.47346 10.5884 6.3914 9.89392 7.45438 9.30872C8.31293 8.83602 9.27878 8.42635 10.3286 8.09159ZM9.99264 9.27475C9.58969 10.88 9.3521 12.6434 9.31536 14.4939H4.2907C4.51525 12.8968 5.79733 11.376 7.9416 10.1955C8.56358 9.85304 9.25073 9.54404 9.99264 9.27475ZM10.3266 14.4939C10.3684 12.4744 10.6588 10.5784 11.1393 8.90316C12.8129 8.42212 14.7072 8.13135 16.7245 8.08954V10.2756C15.9719 12.2043 14.4368 13.7409 12.5099 14.4939H10.3266ZM9.31536 15.5061H4.2907C4.51525 17.1032 5.79733 18.6239 7.9416 19.8045C8.56358 20.147 9.25073 20.4559 9.99264 20.7253C9.58969 19.12 9.3521 17.3566 9.31536 15.5061ZM11.1393 21.0969C10.6588 19.4216 10.3684 17.5256 10.3266 15.5061H12.5099C14.4368 16.2591 15.972 17.7957 16.7245 19.7245V21.9105C14.7072 21.8687 12.8129 21.5778 11.1393 21.0969ZM10.3286 21.9085C9.27878 21.5737 8.31293 21.164 7.45438 20.6913C6.3914 20.1061 5.47346 19.4115 4.76845 18.629C6.00303 22.8842 9.35377 26.2383 13.6047 27.4741C12.823 26.7684 12.1292 25.8496 11.5445 24.7854C11.0723 23.9261 10.6631 22.9593 10.3286 21.9085ZM16.7245 27.9524C15.1291 27.7276 13.6098 26.4442 12.4304 24.2978C12.0883 23.6753 11.7796 22.9873 11.5106 22.2447C13.1143 22.6481 14.8758 22.8859 16.7245 22.9227V27.9524ZM20.8555 27.4741C21.6372 26.7684 22.3311 25.8496 22.9157 24.7854C23.3879 23.9261 23.7971 22.9593 24.1316 21.9085C25.1815 21.5737 26.1472 21.164 27.0058 20.6913C28.0688 20.1061 28.9868 19.4115 29.6917 18.629C28.4571 22.8842 25.1064 26.2383 20.8555 27.4741ZM22.9496 22.2447C22.6805 22.9873 22.3719 23.6753 22.0298 24.2978C20.8505 26.4442 19.3312 27.7276 17.7356 27.9524V22.9227C19.5844 22.8859 21.346 22.6481 22.9496 22.2447ZM24.4675 20.7253C25.2094 20.4559 25.8966 20.147 26.5186 19.8045C28.6628 18.6239 29.9449 17.1032 30.1694 15.5061H25.1449C25.108 17.3566 24.8705 19.12 24.4675 20.7253ZM24.1336 15.5061C24.0919 17.5256 23.8013 19.4216 23.3209 21.0969C21.6473 21.5778 19.7531 21.8687 17.7356 21.9105V19.7261C18.488 17.7966 20.0234 16.2594 21.9509 15.5061H24.1336ZM25.1449 14.4939H30.1694C29.9449 12.8968 28.6628 11.376 26.5186 10.1955C25.8966 9.85304 25.2094 9.54404 24.4675 9.27475C24.8705 10.88 25.108 12.6434 25.1449 14.4939ZM23.3209 8.90316C23.8013 10.5784 24.0919 12.4744 24.1336 14.4939H21.9509C20.0234 13.7406 18.488 12.2034 17.7356 10.274V8.08954C19.7531 8.13135 21.6473 8.42212 23.3209 8.90316ZM24.1316 8.09159C25.1815 8.42635 26.1472 8.83602 27.0058 9.30872C28.0688 9.89392 28.9868 10.5884 29.6917 11.371C28.4571 7.11575 25.1064 3.76166 20.8555 2.52584C21.6372 3.23157 22.3311 4.15041 22.9157 5.21445C23.3879 6.07388 23.7971 7.04071 24.1316 8.09159ZM17.7356 2.04761C19.3312 2.27238 20.8505 3.55575 22.0298 5.70218C22.3719 6.32479 22.6805 7.01262 22.9496 7.75534C21.346 7.35189 19.5844 7.11409 17.7356 7.07731V2.04761Z" fill="#0B3B2D"/>
</g>
<defs>
<clipPath id="clip0_10075_16326">
<rect width="165.511" height="28" fill="white" transform="translate(3.24414 1)"/>
</clipPath>
</defs>
</svg>
