<svg width="266" height="45" viewBox="0 0 266 45" fill="none" xmlns="http://www.w3.org/2000/svg">
<g clip-path="url(#clip0_8_3835)">
<path d="M261.927 19.3221C263.949 19.3221 265.585 17.6828 265.585 15.6609C265.585 13.639 263.949 12 261.927 12C259.908 12 258.271 13.639 258.271 15.6609C258.271 17.6828 259.908 19.3221 261.927 19.3221Z" fill="#0B3B2D"/>
<path d="M69.4324 33.2377C67.8059 33.2377 66.3069 32.9828 64.9352 32.4727C63.5831 31.9431 62.3975 31.1977 61.3786 30.2366C60.3792 29.2755 59.5955 28.1475 59.0271 26.8529C58.4785 25.5583 58.2041 24.1361 58.2041 22.5866C58.2041 21.037 58.4785 19.6148 59.0271 18.3202C59.5955 17.0256 60.3891 15.8977 61.408 14.9366C62.4269 13.9754 63.6224 13.2399 64.994 12.7298C66.3657 12.2002 67.8746 11.9354 69.5206 11.9354C71.343 11.9354 72.9792 12.2395 74.4293 12.8475C75.899 13.4556 77.1335 14.3383 78.1329 15.4956L75.076 18.3202C74.3313 17.5357 73.5181 16.957 72.6363 16.5843C71.7545 16.192 70.7944 15.9958 69.7558 15.9958C68.7564 15.9958 67.8452 16.1527 67.0222 16.4666C66.1992 16.7804 65.4838 17.2316 64.8764 17.82C64.2886 18.4085 63.8281 19.1048 63.4949 19.9091C63.1815 20.7134 63.0246 21.6058 63.0246 22.5866C63.0246 23.5477 63.1815 24.4304 63.4949 25.2347C63.8281 26.0389 64.2886 26.7451 64.8764 27.3531C65.4838 27.9416 66.1893 28.3928 66.9928 28.7066C67.8158 29.0204 68.7171 29.1774 69.697 29.1774C70.6376 29.1774 71.5488 29.0302 72.4306 28.736C73.3319 28.4222 74.204 27.9023 75.0466 27.1766L77.7508 30.6191C76.6339 31.4625 75.3307 32.1098 73.8415 32.561C72.3718 33.0122 70.9021 33.2377 69.4324 33.2377ZM73.4006 30.0012V22.2629H77.7508V30.6191L73.4006 30.0012ZM80.675 32.8847V11.0527H85.2603V32.8847H80.675ZM95.865 33.12C94.1797 33.12 92.6807 32.767 91.3678 32.0608C90.0745 31.3547 89.0457 30.3936 88.2815 29.1774C87.5368 27.9416 87.1645 26.5391 87.1645 24.9699C87.1645 23.381 87.5368 21.9786 88.2815 20.7624C89.0457 19.5266 90.0745 18.5655 91.3678 17.8789C92.6807 17.1727 94.1797 16.8197 95.865 16.8197C97.5306 16.8197 99.02 17.1727 100.333 17.8789C101.646 18.5655 102.674 19.5167 103.419 20.7329C104.164 21.9491 104.536 23.3614 104.536 24.9699C104.536 26.5391 104.164 27.9416 103.419 29.1774C102.674 30.3936 101.646 31.3547 100.333 32.0608C99.02 32.767 97.5306 33.12 95.865 33.12ZM95.865 29.3539C96.6293 29.3539 97.3152 29.1773 97.9226 28.8243C98.53 28.4712 99.0101 27.971 99.3629 27.3237C99.7156 26.6568 99.8919 25.8721 99.8919 24.9699C99.8919 24.0479 99.7156 23.2633 99.3629 22.616C99.0101 21.9687 98.53 21.4685 97.9226 21.1154C97.3152 20.7623 96.6293 20.5858 95.865 20.5858C95.1008 20.5858 94.4149 20.7623 93.8075 21.1154C93.2001 21.4685 92.7101 21.9687 92.3378 22.616C91.9851 23.2633 91.8087 24.0479 91.8087 24.9699C91.8087 25.8721 91.9851 26.6568 92.3378 27.3237C92.7101 27.971 93.2001 28.4712 93.8075 28.8243C94.4149 29.1773 95.1008 29.3539 95.865 29.3539ZM115.773 33.12C114.381 33.12 113.186 32.8258 112.187 32.2373C111.187 31.6489 110.423 30.7563 109.894 29.5599C109.365 28.3436 109.1 26.8136 109.1 24.9699C109.1 23.1063 109.374 21.5763 109.923 20.3798C110.491 19.1834 111.275 18.2908 112.275 17.7023C113.274 17.1139 114.44 16.8197 115.773 16.8197C117.262 16.8197 118.594 17.1531 119.77 17.82C120.965 18.4869 121.906 19.4284 122.592 20.6447C123.297 21.8609 123.65 23.3026 123.65 24.9699C123.65 26.6175 123.297 28.0494 122.592 29.2656C121.906 30.4818 120.965 31.4331 119.77 32.1197C118.594 32.7865 117.262 33.12 115.773 33.12ZM106.425 32.8847V11.0527H111.011V20.2622L110.717 24.9404L110.805 29.6481V32.8847H106.425ZM114.979 29.3539C115.743 29.3539 116.419 29.1773 117.007 28.8243C117.615 28.4712 118.095 27.971 118.447 27.3237C118.82 26.6568 119.006 25.8721 119.006 24.9699C119.006 24.0479 118.82 23.2633 118.447 22.616C118.095 21.9687 117.615 21.4685 117.007 21.1154C116.419 20.7623 115.743 20.5858 114.979 20.5858C114.215 20.5858 113.529 20.7623 112.921 21.1154C112.314 21.4685 111.834 21.9687 111.481 22.616C111.128 23.2633 110.952 24.0479 110.952 24.9699C110.952 25.8721 111.128 26.6568 111.481 27.3237C111.834 27.971 112.314 28.4712 112.921 28.8243C113.529 29.1773 114.215 29.3539 114.979 29.3539ZM134.985 32.8847V29.7952L134.691 29.1185V23.587C134.691 22.6061 134.388 21.8411 133.78 21.292C133.192 20.7428 132.281 20.4681 131.047 20.4681C130.204 20.4681 129.371 20.6054 128.548 20.88C127.745 21.135 127.059 21.4881 126.491 21.9393L124.845 18.7322C125.707 18.1241 126.745 17.6534 127.96 17.3198C129.175 16.9864 130.41 16.8197 131.664 16.8197C134.074 16.8197 135.946 17.3886 137.278 18.5262C138.611 19.6638 139.277 21.4391 139.277 23.8518V32.8847H134.985ZM130.165 33.12C128.93 33.12 127.872 32.9141 126.99 32.5022C126.109 32.0707 125.433 31.4919 124.962 30.7662C124.492 30.0405 124.257 29.2263 124.257 28.3241C124.257 27.3825 124.482 26.5587 124.933 25.8525C125.403 25.1464 126.138 24.5972 127.137 24.2048C128.137 23.7929 129.44 23.587 131.047 23.587H135.25V26.2645H131.546C130.468 26.2645 129.724 26.441 129.312 26.7941C128.92 27.1472 128.725 27.5885 128.725 28.1181C128.725 28.7066 128.95 29.1774 129.401 29.5304C129.871 29.8639 130.508 30.0306 131.311 30.0306C132.075 30.0306 132.761 29.8541 133.369 29.501C133.976 29.1284 134.417 28.5889 134.691 27.8827L135.397 30.0012C135.064 31.0211 134.456 31.796 133.575 32.3256C132.693 32.8552 131.556 33.12 130.165 33.12ZM142.251 32.8847V11.0527H146.836V32.8847H142.251ZM150.24 32.8847V12.2885H154.178L166.318 27.1177H164.407V12.2885H169.11V32.8847H165.201L153.032 18.0554H154.943V32.8847H150.24ZM180.004 33.12C178.318 33.12 176.819 32.767 175.507 32.0608C174.214 31.3547 173.185 30.3936 172.421 29.1774C171.675 27.9416 171.304 26.5391 171.304 24.9699C171.304 23.381 171.675 21.9786 172.421 20.7624C173.185 19.5266 174.214 18.5655 175.507 17.8789C176.819 17.1727 178.318 16.8197 180.004 16.8197C181.669 16.8197 183.16 17.1727 184.472 17.8789C185.784 18.5655 186.813 19.5167 187.558 20.7329C188.303 21.9491 188.675 23.3614 188.675 24.9699C188.675 26.5391 188.303 27.9416 187.558 29.1774C186.813 30.3936 185.784 31.3547 184.472 32.0608C183.16 32.767 181.669 33.12 180.004 33.12ZM180.004 29.3539C180.768 29.3539 181.455 29.1773 182.062 28.8243C182.668 28.4712 183.149 27.971 183.502 27.3237C183.855 26.6568 184.031 25.8721 184.031 24.9699C184.031 24.0479 183.855 23.2633 183.502 22.616C183.149 21.9687 182.668 21.4685 182.062 21.1154C181.455 20.7623 180.768 20.5858 180.004 20.5858C179.24 20.5858 178.553 20.7623 177.946 21.1154C177.34 21.4685 176.849 21.9687 176.477 22.616C176.124 23.2633 175.948 24.0479 175.948 24.9699C175.948 25.8721 176.124 26.6568 176.477 27.3237C176.849 27.971 177.34 28.4712 177.946 28.8243C178.553 29.1773 179.24 29.3539 180.004 29.3539ZM210.817 16.8197C212.071 16.8197 213.177 17.0747 214.139 17.5847C215.117 18.075 215.881 18.84 216.431 19.8797C216.998 20.8996 217.284 22.2139 217.284 23.8223V32.8847H212.698V24.5285C212.698 23.2534 212.434 22.3119 211.905 21.7039C211.376 21.0959 210.63 20.7918 209.671 20.7918C209.003 20.7918 208.407 20.9488 207.878 21.2625C207.349 21.5568 206.937 22.008 206.643 22.616C206.349 23.224 206.202 23.9989 206.202 24.9404V32.8847H201.617V24.5285C201.617 23.2534 201.352 22.3119 200.823 21.7039C200.313 21.0959 199.578 20.7918 198.619 20.7918C197.951 20.7918 197.355 20.9488 196.826 21.2625C196.297 21.5568 195.885 22.008 195.591 22.616C195.297 23.224 195.15 23.9989 195.15 24.9404V32.8847H190.565V17.055H194.945V21.3802L194.122 20.115C194.67 19.0363 195.444 18.2221 196.444 17.6729C197.462 17.1041 198.619 16.8197 199.912 16.8197C201.361 16.8197 202.625 17.1923 203.704 17.9377C204.8 18.6634 205.526 19.7815 205.879 21.292L204.262 20.8506C204.791 19.6148 205.634 18.634 206.79 17.9083C207.966 17.1825 209.308 16.8197 210.817 16.8197ZM229.918 32.8847V29.7952L229.624 29.1185V23.587C229.624 22.6061 229.32 21.8411 228.713 21.292C228.125 20.7428 227.214 20.4681 225.979 20.4681C225.135 20.4681 224.304 20.6054 223.481 20.88C222.677 21.135 221.99 21.4881 221.423 21.9393L219.777 18.7322C220.638 18.1241 221.677 17.6534 222.893 17.3198C224.106 16.9864 225.341 16.8197 226.596 16.8197C229.007 16.8197 230.877 17.3886 232.21 18.5262C233.542 19.6638 234.209 21.4391 234.209 23.8518V32.8847H229.918ZM225.097 33.12C223.863 33.12 222.805 32.9141 221.923 32.5022C221.041 32.0707 220.365 31.4919 219.895 30.7662C219.424 30.0405 219.189 29.2263 219.189 28.3241C219.189 27.3825 219.414 26.5587 219.865 25.8525C220.335 25.1464 221.07 24.5972 222.07 24.2048C223.069 23.7929 224.371 23.587 225.979 23.587H230.182V26.2645H226.479C225.4 26.2645 224.656 26.441 224.245 26.7941C223.852 27.1472 223.657 27.5885 223.657 28.1181C223.657 28.7066 223.882 29.1774 224.333 29.5304C224.803 29.8639 225.44 30.0306 226.244 30.0306C227.008 30.0306 227.692 29.8541 228.301 29.501C228.908 29.1284 229.349 28.5889 229.624 27.8827L230.329 30.0012C229.996 31.0211 229.389 31.796 228.507 32.3256C227.625 32.8552 226.487 33.12 225.097 33.12ZM244.087 33.12C242.598 33.12 241.257 32.7865 240.06 32.1197C238.866 31.4331 237.915 30.4818 237.209 29.2656C236.524 28.0494 236.18 26.6175 236.18 24.9699C236.18 23.3026 236.524 21.8609 237.209 20.6447C237.915 19.4284 238.866 18.4869 240.06 17.82C241.257 17.1531 242.598 16.8197 244.087 16.8197C245.42 16.8197 246.586 17.1139 247.585 17.7023C248.584 18.2908 249.359 19.1834 249.907 20.3798C250.457 21.5763 250.73 23.1063 250.73 24.9699C250.73 26.8136 250.466 28.3436 249.936 29.5599C249.407 30.7563 248.643 31.6489 247.644 32.2373C246.665 32.8258 245.479 33.12 244.087 33.12ZM244.881 29.3539C245.626 29.3539 246.302 29.1773 246.909 28.8243C247.518 28.4712 247.997 27.971 248.349 27.3237C248.723 26.6568 248.908 25.8721 248.908 24.9699C248.908 24.0479 248.723 23.2633 248.349 22.616C247.997 21.9687 247.518 21.4685 246.909 21.1154C246.302 20.7623 245.626 20.5858 244.881 20.5858C244.117 20.5858 243.432 20.7623 242.823 21.1154C242.216 21.4685 241.727 21.9687 241.354 22.616C241.001 23.2633 240.825 24.0479 240.825 24.9699C240.825 25.8721 241.001 26.6568 241.354 27.3237C241.727 27.971 242.216 28.4712 242.823 28.8243C243.432 29.1773 244.117 29.3539 244.881 29.3539ZM249.025 32.8847V29.6481L249.113 24.9404L248.82 20.2622V11.0527H253.405V32.8847H249.025Z" fill="#0B3B2D"/>
<path fill-rule="evenodd" clip-rule="evenodd" d="M22.4774 0C34.8914 0 44.9548 10.0736 44.9548 22.5C44.9548 34.9264 34.8914 45 22.4774 45C10.0635 45 0 34.9264 0 22.5C0 10.0736 10.0635 0 22.4774 0ZM21.6649 1.68366C19.1008 2.0449 16.6591 4.10746 14.7636 7.55708C14.2138 8.55769 13.7177 9.66314 13.2854 10.8568C15.8627 10.2084 18.6938 9.82622 21.6649 9.76711V1.68366ZM11.3857 11.3972C11.9233 9.70828 12.5809 8.15445 13.3399 6.77323C14.2795 5.06316 15.3946 3.58645 16.6509 2.45224C9.81904 4.43838 4.43393 9.82888 2.44978 16.6677C3.58283 15.41 5.05809 14.2938 6.76645 13.3533C8.14627 12.5936 9.69852 11.9352 11.3857 11.3972ZM10.8458 13.2987C10.1982 15.8786 9.81637 18.7126 9.75731 21.6867H1.68197C2.04285 19.1198 4.10334 16.6757 7.54949 14.7785C8.5491 14.2281 9.65345 13.7315 10.8458 13.2987ZM11.3826 21.6867C11.4497 18.441 11.9164 15.3938 12.6887 12.7015C15.3784 11.9284 18.4227 11.4611 21.6649 11.3939V14.9072C20.4553 18.0069 17.9882 20.4764 14.8914 21.6867H11.3826ZM9.75731 23.3133H1.68197C2.04285 25.8802 4.10334 28.3242 7.54949 30.2215C8.5491 30.7719 9.65345 31.2684 10.8458 31.7013C10.1982 29.1214 9.81637 26.2874 9.75731 23.3133ZM12.6887 32.2986C11.9164 29.6062 11.4497 26.559 11.3826 23.3133H14.8914C17.9882 24.5236 20.4555 26.9931 21.6649 30.0929V33.6062C18.4227 33.539 15.3784 33.0715 12.6887 32.2986ZM11.3857 33.6029C9.69852 33.0648 8.14627 32.4064 6.76645 31.6468C5.05809 30.7063 3.58283 29.5899 2.44978 28.3323C4.43393 35.1711 9.81904 40.5616 16.6509 42.5477C15.3946 41.4135 14.2795 39.9368 13.3399 38.2266C12.5809 36.8455 11.9233 35.2918 11.3857 33.6029ZM21.6649 43.3163C19.1008 42.9551 16.6591 40.8925 14.7636 37.4429C14.2138 36.4424 13.7177 35.3368 13.2854 34.1432C15.8627 34.7916 18.6938 35.1737 21.6649 35.2329V43.3163ZM28.3039 42.5477C29.5602 41.4135 30.6755 39.9368 31.615 38.2266C32.3739 36.8455 33.0316 35.2918 33.5692 33.6029C35.2564 33.0648 36.8085 32.4064 38.1884 31.6468C39.8967 30.7063 41.3721 29.5899 42.505 28.3323C40.5209 35.1711 35.1358 40.5616 28.3039 42.5477ZM31.6695 34.1432C31.237 35.3368 30.741 36.4424 30.1912 37.4429C28.296 40.8925 25.8542 42.9551 23.2899 43.3163V35.2329C26.2611 35.1737 29.0922 34.7916 31.6695 34.1432ZM34.109 31.7013C35.3013 31.2684 36.4058 30.7719 37.4054 30.2215C40.8515 28.3242 42.912 25.8802 43.2728 23.3133H35.1976C35.1384 26.2874 34.7567 29.1214 34.109 31.7013ZM33.5724 23.3133C33.5054 26.559 33.0383 29.6062 32.2662 32.2986C29.5765 33.0715 26.5323 33.539 23.2899 33.6062V30.0955C24.499 26.9945 26.9667 24.524 30.0644 23.3133H33.5724ZM35.1976 21.6867H43.2728C42.912 19.1198 40.8515 16.6757 37.4054 14.7785C36.4058 14.2281 35.3013 13.7315 34.109 13.2987C34.7567 15.8786 35.1384 18.7126 35.1976 21.6867ZM32.2662 12.7015C33.0383 15.3938 33.5054 18.441 33.5724 21.6867H30.0644C26.9667 20.476 24.499 18.0055 23.2899 14.9046V11.3939C26.5323 11.4611 29.5765 11.9284 32.2662 12.7015ZM33.5692 11.3972C35.2564 11.9352 36.8085 12.5936 38.1884 13.3533C39.8967 14.2938 41.3721 15.41 42.505 16.6677C40.5209 9.82888 35.1358 4.43838 28.3039 2.45224C29.5602 3.58645 30.6755 5.06316 31.615 6.77323C32.3739 8.15445 33.0316 9.70828 33.5692 11.3972ZM23.2899 1.68366C25.8542 2.0449 28.296 4.10746 30.1912 7.55708C30.741 8.5577 31.237 9.66314 31.6695 10.8568C29.0922 10.2084 26.2611 9.82622 23.2899 9.76711V1.68366Z" fill="#0B3B2D"/>
</g>
<defs>
<clipPath id="clip0_8_3835">
<rect width="266" height="45" fill="white"/>
</clipPath>
</defs>
</svg>
