<svg width="24" height="24" viewBox="0 0 24 24" fill="none" xmlns="http://www.w3.org/2000/svg">
<mask id="path-1-inside-1_18084_7112" fill="white">
<path d="M21.1 12.5L22.5 13.91L15.97 20.5L12.5 17L13.9 15.59L15.97 17.67L21.1 12.5ZM11 4C12.0609 4 13.0783 4.42143 13.8284 5.17157C14.5786 5.92172 15 6.93913 15 8C15 9.06087 14.5786 10.0783 13.8284 10.8284C13.0783 11.5786 12.0609 12 11 12C9.93913 12 8.92172 11.5786 8.17157 10.8284C7.42143 10.0783 7 9.06087 7 8C7 6.93913 7.42143 5.92172 8.17157 5.17157C8.92172 4.42143 9.93913 4 11 4ZM11 6C10.4696 6 9.96086 6.21071 9.58579 6.58579C9.21071 6.96086 9 7.46957 9 8C9 8.53043 9.21071 9.03914 9.58579 9.41421C9.96086 9.78929 10.4696 10 11 10C11.5304 10 12.0391 9.78929 12.4142 9.41421C12.7893 9.03914 13 8.53043 13 8C13 7.46957 12.7893 6.96086 12.4142 6.58579C12.0391 6.21071 11.5304 6 11 6ZM11 13C11.68 13 12.5 13.09 13.41 13.26L11.74 14.93L11 14.9C8.03 14.9 4.9 16.36 4.9 17V18.1H11.1L13 20H3V17C3 14.34 8.33 13 11 13Z"/>
</mask>
<path d="M21.1 12.5L22.5 13.91L15.97 20.5L12.5 17L13.9 15.59L15.97 17.67L21.1 12.5ZM11 4C12.0609 4 13.0783 4.42143 13.8284 5.17157C14.5786 5.92172 15 6.93913 15 8C15 9.06087 14.5786 10.0783 13.8284 10.8284C13.0783 11.5786 12.0609 12 11 12C9.93913 12 8.92172 11.5786 8.17157 10.8284C7.42143 10.0783 7 9.06087 7 8C7 6.93913 7.42143 5.92172 8.17157 5.17157C8.92172 4.42143 9.93913 4 11 4ZM11 6C10.4696 6 9.96086 6.21071 9.58579 6.58579C9.21071 6.96086 9 7.46957 9 8C9 8.53043 9.21071 9.03914 9.58579 9.41421C9.96086 9.78929 10.4696 10 11 10C11.5304 10 12.0391 9.78929 12.4142 9.41421C12.7893 9.03914 13 8.53043 13 8C13 7.46957 12.7893 6.96086 12.4142 6.58579C12.0391 6.21071 11.5304 6 11 6ZM11 13C11.68 13 12.5 13.09 13.41 13.26L11.74 14.93L11 14.9C8.03 14.9 4.9 16.36 4.9 17V18.1H11.1L13 20H3V17C3 14.34 8.33 13 11 13Z" fill="#112211"/>
<path d="M21.1 12.5L21.8096 11.7954L21.0998 11.0805L20.3902 11.7956L21.1 12.5ZM22.5 13.91L23.2103 14.6139L23.9085 13.9093L23.2096 13.2054L22.5 13.91ZM15.97 20.5L15.2599 21.2041L15.9702 21.9205L16.6803 21.2039L15.97 20.5ZM12.5 17L11.7904 16.2954L11.0913 16.9995L11.7899 17.7041L12.5 17ZM13.9 15.59L14.6088 14.8846L13.8992 14.1715L13.1904 14.8854L13.9 15.59ZM15.97 17.67L15.2612 18.3754L15.971 19.0887L16.6798 18.3744L15.97 17.67ZM15 8H16H15ZM11 12V13V12ZM7 8H6H7ZM13.41 13.26L14.1171 13.9671L15.4588 12.6254L13.5936 12.277L13.41 13.26ZM11.74 14.93L11.6995 15.9292L12.1373 15.9469L12.4471 15.6371L11.74 14.93ZM11 14.9L11.0405 13.9008L11.0203 13.9H11V14.9ZM4.9 18.1H3.9V19.1H4.9V18.1ZM11.1 18.1L11.8071 17.3929L11.5142 17.1H11.1V18.1ZM13 20V21H15.4142L13.7071 19.2929L13 20ZM3 20H2V21H3V20ZM20.3904 13.2046L21.7904 14.6146L23.2096 13.2054L21.8096 11.7954L20.3904 13.2046ZM21.7897 13.2061L15.2597 19.7961L16.6803 21.2039L23.2103 14.6139L21.7897 13.2061ZM16.6801 19.7959L13.2101 16.2959L11.7899 17.7041L15.2599 21.2041L16.6801 19.7959ZM13.2096 17.7046L14.6096 16.2946L13.1904 14.8854L11.7904 16.2954L13.2096 17.7046ZM13.1912 16.2954L15.2612 18.3754L16.6788 16.9646L14.6088 14.8846L13.1912 16.2954ZM16.6798 18.3744L21.8098 13.2044L20.3902 11.7956L15.2602 16.9656L16.6798 18.3744ZM11 5C11.7956 5 12.5587 5.31607 13.1213 5.87868L14.5355 4.46447C13.5979 3.52678 12.3261 3 11 3V5ZM13.1213 5.87868C13.6839 6.44129 14 7.20435 14 8H16C16 6.67392 15.4732 5.40215 14.5355 4.46447L13.1213 5.87868ZM14 8C14 8.79565 13.6839 9.55871 13.1213 10.1213L14.5355 11.5355C15.4732 10.5979 16 9.32608 16 8H14ZM13.1213 10.1213C12.5587 10.6839 11.7956 11 11 11V13C12.3261 13 13.5979 12.4732 14.5355 11.5355L13.1213 10.1213ZM11 11C10.2044 11 9.44129 10.6839 8.87868 10.1213L7.46447 11.5355C8.40215 12.4732 9.67392 13 11 13V11ZM8.87868 10.1213C8.31607 9.55871 8 8.79565 8 8H6C6 9.32608 6.52678 10.5979 7.46447 11.5355L8.87868 10.1213ZM8 8C8 7.20435 8.31607 6.44129 8.87868 5.87868L7.46447 4.46447C6.52678 5.40215 6 6.67392 6 8H8ZM8.87868 5.87868C9.44129 5.31607 10.2044 5 11 5V3C9.67392 3 8.40215 3.52678 7.46447 4.46447L8.87868 5.87868ZM11 5C10.2044 5 9.44129 5.31607 8.87868 5.87868L10.2929 7.29289C10.4804 7.10536 10.7348 7 11 7V5ZM8.87868 5.87868C8.31607 6.44129 8 7.20435 8 8H10C10 7.73478 10.1054 7.48043 10.2929 7.29289L8.87868 5.87868ZM8 8C8 8.79565 8.31607 9.55871 8.87868 10.1213L10.2929 8.70711C10.1054 8.51957 10 8.26522 10 8H8ZM8.87868 10.1213C9.44129 10.6839 10.2043 11 11 11V9C10.7348 9 10.4804 8.89464 10.2929 8.70711L8.87868 10.1213ZM11 11C11.7957 11 12.5587 10.6839 13.1213 10.1213L11.7071 8.70711C11.5196 8.89464 11.2652 9 11 9V11ZM13.1213 10.1213C13.6839 9.55871 14 8.79565 14 8H12C12 8.26522 11.8946 8.51957 11.7071 8.70711L13.1213 10.1213ZM14 8C14 7.20435 13.6839 6.44129 13.1213 5.87868L11.7071 7.29289C11.8946 7.48043 12 7.73478 12 8H14ZM13.1213 5.87868C12.5587 5.31607 11.7956 5 11 5V7C11.2652 7 11.5196 7.10536 11.7071 7.29289L13.1213 5.87868ZM11 14C11.5993 14 12.3547 14.0801 13.2264 14.243L13.5936 12.277C12.6453 12.0999 11.7607 12 11 12V14ZM12.7029 12.5529L11.0329 14.2229L12.4471 15.6371L14.1171 13.9671L12.7029 12.5529ZM11.7805 13.9308L11.0405 13.9008L10.9595 15.8992L11.6995 15.9292L11.7805 13.9308ZM11 13.9C9.36673 13.9 7.71881 14.2978 6.47639 14.777C5.85544 15.0165 5.29987 15.29 4.88024 15.5702C4.67335 15.7083 4.46576 15.8702 4.29821 16.0557C4.15964 16.2091 3.9 16.5391 3.9 17H5.9C5.9 17.3009 5.73817 17.4453 5.78238 17.3963C5.7976 17.3795 5.85774 17.3223 5.9907 17.2336C6.25075 17.06 6.66331 16.8485 7.19611 16.643C8.26119 16.2322 9.66327 15.9 11 15.9V13.9ZM3.9 17V18.1H5.9V17H3.9ZM4.9 19.1H11.1V17.1H4.9V19.1ZM10.3929 18.8071L12.2929 20.7071L13.7071 19.2929L11.8071 17.3929L10.3929 18.8071ZM13 19H3V21H13V19ZM4 20V17H2V20H4ZM4 17C4 16.7023 4.1412 16.3675 4.55276 15.9877C4.97111 15.6015 5.59853 15.2401 6.37062 14.9308C7.91642 14.3115 9.79001 14 11 14V12C9.53999 12 7.41358 12.3585 5.62688 13.0742C4.73272 13.4324 3.86076 13.9047 3.1963 14.518C2.52505 15.1375 2 15.9677 2 17H4Z" fill="#112211" mask="url(#path-1-inside-1_18084_7112)"/>
</svg>
